<svg xmlns="http://www.w3.org/2000/svg" viewBox="0 0 100 100" width="100%" height="100%">
  <path d="M48,52 L15,5 L45,-5 Z" fill="rgba(255,255,255,0.15)" stroke="rgba(255,255,255,0.8)" stroke-width="0.3"/>
  <path d="M48,52 L15,5 L-5,45 Z" fill="rgba(255,255,255,0.3)" stroke="rgba(255,255,255,0.9)" stroke-width="0.3"/>
  <path d="M48,52 L-5,45 L10,95 Z" fill="rgba(255,255,255,0.1)" stroke="rgba(255,255,255,0.7)" stroke-width="0.3"/>
  <path d="M48,52 L10,95 L65,105 Z" fill="rgba(255,255,255,0.4)" stroke="rgba(255,255,255,0.8)" stroke-width="0.3"/>
  <path d="M48,52 L65,105 L105,75 Z" fill="rgba(255,255,255,0.2)" stroke="rgba(255,255,255,0.9)" stroke-width="0.3"/>
  <path d="M48,52 L105,75 L105,25 Z" fill="rgba(255,255,255,0.1)" stroke="rgba(255,255,255,0.6)" stroke-width="0.3"/>
  <path d="M48,52 L105,25 L75,-5 Z" fill="rgba(255,255,255,0.25)" stroke="rgba(255,255,255,0.8)" stroke-width="0.3"/>
  <path d="M48,52 L75,-5 L45,-5 Z" fill="rgba(255,255,255,0.35)" stroke="rgba(255,255,255,0.7)" stroke-width="0.3"/>
  <line x1="48" y1="52" x2="30" y2="20" stroke="rgba(255,255,255,1)" stroke-width="0.5"/>
  <line x1="48" y1="52" x2="80" y2="40" stroke="rgba(255,255,255,1)" stroke-width="0.5"/>
  <line x1="48" y1="52" x2="60" y2="80" stroke="rgba(255,255,255,1)" stroke-width="0.5"/>
  <line x1="48" y1="52" x2="20" y2="70" stroke="rgba(255,255,255,1)" stroke-width="0.5"/>
</svg>
